<svg xmlns="http://www.w3.org/2000/svg" width="673" height="406" xmlns:xlink="http://www.w3.org/1999/xlink">
  <defs>
    <path id="a" d="M0 0h21v40H0z"/>
    <path id="b" d="M73.14 44.3v26.88a3.77 3.77 0 0 1-3.76 3.77H19.2a3.77 3.77 0 0 1-3.77-3.77l1.53-37L.64 44.3C.64 20.22 20.16.7 44.24.7c11.14 0 21.28 4.16 29 11.02"/>
  </defs>
  <g fill="none" fill-rule="evenodd">
    <path fill="#BF7358" d="M284.88 219.04l-24.53-29.24 13.6-11.4 24.53 29.22c2.8 3.34 2.03 8.6-1.73 11.76-3.75 3.15-9.07 3-11.87-.34z"/>
    <path fill="#BF7358" d="M288.65 197.7l20.5-42.77 18.57 4.78-29.1 57.4-9.97-19.3zm-110.9 18.97c-3.56-3.56-3.56-9.4 0-12.96l31.37-31.3c3.57-3.5 9.4-3.5 12.96 0 3.57 3.6 3.57 9.4 0 13l-31.38 31.3c-3.54 3.6-9.37 3.6-12.94 0m29.9 21.9a3.3 3.3 0 0 1-3.3-3.3v-10.2a3.3 3.3 0 0 1 3.3-3.3 3.3 3.3 0 0 1 3.3 3.3v10.2a3.3 3.3 0 0 1-3.3 3.3m4.94 23.4l1 136.1H233V283.3c0-2.03 3.77-3.7 5.8-3.7s5.8 1.67 5.8 3.7v114.8H264l1-136.1h-52.42z"/>
    <g transform="matrix(-1 0 0 1 265 358)">
      <path fill="#888" d="M32 0h21v40H32z"/>
      <use fill="#888" xlink:href="#a"/>
      <path fill="#333" d="M30 7h25v40H30z"/>
    </g>
    <path fill="#333" d="M267 365h-25v40h25z"/>
    <path fill="#4C4C4C" d="M235 405.2c0-6.73-5.47-12.2-12.2-12.2h-10.72c-6.74 0-12.2 5.47-12.2 12.2H235z"/>
    <g transform="matrix(-1 0 0 1 283 160)">
      <mask id="c" fill="#fff">
        <use xlink:href="#b"/>
      </mask>
      <use fill="#BF7358" xlink:href="#b"/>
      <path fill="#4C4C4C" d="M62 3h7v27h-7zM19 3h7v27h-7z" mask="url(#c)"/>
    </g>
    <path fill="#4C4C4C" d="M277 405.2c0-6.73-5.47-12.2-12.2-12.2h-10.72c-6.74 0-12.2 5.47-12.2 12.2H277z"/>
    <path fill="#BF7358" d="M175.45 215.85c-2.6-4.32-1.18-9.98 3.14-12.57 4.3-2.6 9.9-1.18 12.5 3.14l18.7 28.67c2.6 4.3 1.2 9.9-3.2 12.5-4.3 2.6-10 1.2-12.6-3.2"/>
    <path fill="#FFB5A1" d="M219.58 241.03h-8.04a3.18 3.18 0 0 1-3.17-3.17 3.18 3.18 0 0 1 3.17-3.17h8.04a3.18 3.18 0 0 1 3.17 3.1 3.18 3.18 0 0 1-3.17 3.1"/>
    <path fill="#FFB5A1" d="M219.58 247.25h-8.04a3.18 3.18 0 0 1-3.17-3.17 3.18 3.18 0 0 1 3.17-3.17h8.04a3.18 3.18 0 0 1 3.17 3.2 3.18 3.18 0 0 1-3.17 3.2"/>
    <path fill="#FFB5A1" d="M219.58 253.5h-8.04a3.18 3.18 0 0 1-3.17-3.18 3.18 3.18 0 0 1 3.17-3.17h8.04a3.18 3.18 0 0 1 3.17 3.17 3.18 3.18 0 0 1-3.17 3.17"/>
    <path fill="#BF7358" d="M210.93 234.7h-14.9v6.8c0 6.62 5.37 12 12 12h2.9v-18.8z"/>
    <path fill="#BF7358" d="M196.03 246.75s4.44 5.54 12.6 6.67c8.2 1.14-10.95-19.68-10.95-19.68l-1.65 13z"/>
    <path fill="#F8A735" d="M189.36 191.62l17.9-17.8 2.14 2.1a61.8 61.8 0 0 0 29.5 7.5c11.6 0 22.46-3.23 31.7-8.83 7.3 7.7 15.65 17.9 15.65 17.9l-12.55 13.2-5.9-7.3v90h-58.3v-89.9l-7.6 7.2-12.5-14.2z"/>
    <path fill="#0E6CA0" d="M266.07 274.95v26.2h-23.9v-14.7a3.4 3.4 0 0 0-6.8 0v14.7H211.4v-26.2h54.67z"/>
    <path fill="#FFC200" d="M209.86 288.55h57.8v-16.8h-57.8v16.8z"/>
    <path fill="#0E6CA0" d="M402.04 316.8H402l13.33-69.8h55.4v151.76H444.6V288.14a3.78 3.78 0 1 0-7.57 0l-11.17 31.36 7.83 67.66-21.6 1.7-10.1-72.04z"/>
    <path fill="#56B3CC" d="M437 402.36h-31.1V385.1H437v17.26zm37.54 0h-31.1V385.1h31.1v17.26z"/>
    <path fill="#934F3F" d="M436.6 402.36c0-6.58-5.34-11.9-11.92-11.9h-10.45c-6.58 0-11.9 5.32-11.9 11.9h34.26zm41.83 0c0-6.58-5.33-11.9-11.9-11.9h-10.46c-6.58 0-11.92 5.32-11.92 11.9h34.28z"/>
    <path fill="#7F3B1F" d="M466.5 263.03h4.6v-25.96h-17.4v13.16c0 7.07 5.72 12.8 12.8 12.8m-49.56-1h-4.6l4-25.96h13.4v13.16c0 7.07-5.73 12.8-12.8 12.8l-4.4-27.22 4.4 27.3z"/>
    <path fill="#5B3128" d="M436.46 405.08H401V402h35.46v3.08zm43.16.36h-35.47v-3.08h35.47v3.08z"/>
    <path fill="#1498D1" d="M457.57 329.78l-3.3-3.3 3.3-3.3 3.3 3.3-3.3 3.3zm6.62 0a1.17 1.17 0 1 0 1.6-1.64l-1.7-1.66 1.6-1.66a1.17 1.17 0 1 0-1.7-1.65l-1.7 1.66-3.3-3.3 1.6-1.67a1.17 1.17 0 0 0-1.7-1.65l-1.7 1.7-1.7-1.6a1.17 1.17 0 0 0-1.6 1.7l1.6 1.7-3.3 3.3-1.7-1.6a1.17 1.17 0 0 0-1.66 1.7l1.7 1.7-1.68 1.7a1.17 1.17 0 1 0 1.62 1.7l1.66-1.6 3.3 3.3-1.67 1.7a1.17 1.17 0 0 0 1.6 1.7l1.7-1.65L459 335a1.17 1.17 0 0 0 1.67-1.67l-1.66-1.7 3.3-3.3L464 330z"/>
    <path fill="#127EAD" d="M435.02 250.6v24.35c0 5.7 4.6 10.3 10.3 10.3V250.6H435z"/>
    <path fill="#FFB600" d="M443.6 256.74a3.38 3.38 0 1 1-6.76 0 3.38 3.38 0 0 1 6.76 0"/>
    <path fill="#FF9D8A" d="M473.22 278.98a3.43 3.43 0 0 0 4.53-1.72l3.73-8.28a3.43 3.43 0 1 0-6.25-2.82l-3.73 8.28a3.43 3.43 0 0 0 1.72 4.54"/>
    <path fill="#FDB39F" d="M482 214v60c-.02-.02-.03.1 0 0v1l-1 4c-.72 1.06-2.1 2.14-4 2-1.65-.22-2.9-2.27-2-4l1-4v-8c-.3-1.32-.76-2.15-2-2-1.1-1.22-2.67-.02-3 2v5c.33 1.43-.52 2.65-2 3-1.47.3-3-1.07-3-3v-56h16"/>
    <path fill="#FF9D8A" d="M401.4 116.33c0 3.96 3.43 7.16 7.66 7.16 4.22 0 7.65-3.3 7.65-7.2s-3.4-7.2-7.6-7.2-7.6 3.2-7.6 7.1m76.8 0c0 3.9-3.4 7.1-7.6 7.1s-7.6-3.2-7.6-7.2 3.4-7.2 7.7-7.2 7.7 3.2 7.7 7.1"/>
    <path fill="#231F1F" d="M449.08 136.4c-2.23-2.6-5.53-4.23-9.2-4.23-3.7 0-7.06 1.7-9.3 4.35l.55.45c2.1-2.5 5.26-4.1 8.76-4.1 3.4 0 6.5 1.55 8.6 3.98l.5-.46"/>
    <path fill="#1CB0F6" d="M483.1 248.58v-53.46c0-22.87-19.18-41.42-42.83-41.42s-42.83 18.55-42.83 41.42v53.46h85.66z"/>
    <path fill="#8FD4EF" d="M466.16 180.53v-15.1c0-14.46-11.82-26.28-26.27-26.28s-26.3 11.82-26.3 26.27v15l52.5.1"/>
    <path fill="#FFF" d="M428 158h24v93h-24v-93z"/>
    <path fill="#FFB5A1" d="M378.56 150.03l-17.15 4.88 14.2 50 17.2-4.9-14.2-49.9"/>
    <path fill="#FF9D8A" d="M428.07 151.7v6.8c0 6.5 5.32 11.8 11.82 11.8s11.8-5.3 11.8-11.8v-6.76"/>
    <path fill="#1CB0F6" d="M386.6 169.55l-20.6 6.1 12.4 41.77 20.6-6.1-12.4-41.77"/>
    <path fill="#FFB5A1" d="M439.8 154.15c-16.98 0-30.74-13.76-30.74-30.73v-19.1c0-16.96 13.76-30.72 30.73-30.72s30.7 13.76 30.7 30.73v19.1c0 16.96-13.8 30.72-30.8 30.72"/>
    <path fill="#934F3F" d="M453.24 126.47h-26.7a3.94 3.94 0 0 1-3.94-3.94v-2.26a3.94 3.94 0 0 1 3.95-3.94h26.7a3.95 3.95 0 0 1 3.93 3.94v2.26a3.95 3.95 0 0 1-3.94 3.94"/>
    <path fill="#934F3F" d="M470.52 119.38v9.06c0 16.97-13.76 30.73-30.73 30.73S409 145.4 409 128.44v-9.06h61.46"/>
    <path fill="#7D2B25" d="M439.9 139.95h-.02.02m.05 0h-.02.02m-.33 0h.02-.02m-.05 0h.02-.1m-.1 0h-.1m-.1 0h-.1m-.1 0h.1-.1m-.1 0h.1-.07m1.2-.04h-.03.06m.2 0h.03m.04 0h-.06m.04 0h-.04m.1 0h.05m.1 0h-.1.1m14.9-16h-32.1c0 8.7 6.9 15.8 15.5 16.1a15.98 15.98 0 0 1-8.4-2.6 11.76 11.76 0 0 1 9-4.1c3.54 0 6.73 1.6 8.9 4.1a15.97 15.97 0 0 1-7.7 2.7c8.26-.7 14.75-7.6 14.75-16"/>
    <path fill="#F2F2F2" d="M424.63 129.06h30.4c.57-1.62.87-3.36.87-5.17h-32.12c0 1.8.3 3.5.85 5.1"/>
    <path fill="#EB9486" d="M427.82 109.1a3.83 3.83 0 1 1-7.66 0 3.83 3.83 0 0 1 7.66 0m31.6 0a3.83 3.83 0 1 1-7.66 0 3.83 3.83 0 0 1 7.66 0"/>
    <path fill="#FF9D8A" d="M443.5 119.13h-7.42c-.74 0-1.34-.6-1.34-1.34v-11.2c0-.8.6-1.4 1.34-1.4h7.42c.74 0 1.34.6 1.34 1.3v11.2c0 .7-.6 1.3-1.34 1.3"/>
    <path fill="#934F3F" d="M428.52 72.77h61.2c0 10.8-8.76 19.66-19.46 19.66h-61.2c0-10.82 8.75-19.67 19.46-19.67"/>
    <path fill="#FFB5A1" d="M409.06 92.42h61.46v11.78h-61.46V92.42z"/>
    <path fill="#A84A3C" d="M439.8 139.95h.04-.05m0 0h-.1m-.2 0h-.1m.2 0h-.1m-.27 0h.05-.1m-.06 0h-.04m.4 0h-.1.1m.1 0h.1m-.6 0h.02m.65 0h.06m-.8 0h.1-.04m.8 0h.03m0 0h.1m.05 0h.1m0 0h.02m.2-.03h-.03.07m.1 0h-.02.03m.5-.02"/>
    <path fill="#A13E34" d="M439.92 133.1a11.76 11.76 0 0 0-8.98 4.16 15.98 15.98 0 0 0 8.35 2.68h1.3v-.02h.2a.3.3 0 0 1 0-.02h.1a15.97 15.97 0 0 0 7.7-2.7c-2.2-2.5-5.4-4.1-8.9-4.1"/>
    <path fill="#F0F0F0" d="M390.94 210.52h22.6v44.8h-22.6v-44.8z"/>
    <path fill="#1CB0F6" d="M400.63 179.17l20.6 6.1-9.53 32.15-20.6-6.1 9.53-32.15"/>
    <path fill="#1CB0F6" d="M428.07 246.98h-15.64a5.37 5.37 0 0 1-5.37-5.37v-36.5h21V247m-35.46-18.7c-7.92 0-14.43-6.5-14.43-14.45v-.15c0-7.95 6.5-14.45 14.45-14.45 7.96 0 14.46 6.5 14.46 14.45v.16c0 7.94-6.5 14.45-14.45 14.45"/>
    <path fill="#FFB5A1" d="M374 172h-13c-2.56 0-5-2.48-5-6v-14c0-3.52 2.44-6 5-6h13c2.56 0 5 2.48 5 6v14c0 3.52-2.44 6-5 6"/>
    <path fill="#FFB5A1" d="M366 151c0 1.98-2.08 4-5 4h-7c-2.9 0-5-2.02-5-4 0-2.98 2.1-5 5-5h7c2.92 0 5 2.02 5 5m0 9c0 1.98-2.08 4-5 4h-7c-2.9 0-5-2.02-5-4 0-2.98 2.1-5 5-5h7c2.92 0 5 2.02 5 5"/>
    <path fill="#FF9E88" d="M368.2 158.8a4.6 4.6 0 0 1-4.6-4.6v-7.64a4.6 4.6 0 0 1 4.6-4.6 4.6 4.6 0 0 1 4.58 4.6v7.65a4.6 4.6 0 0 1-4.6 4.6"/>
    <path fill="#FFB5A1" d="M366 168c0 1.98-2.08 4-5 4h-7c-2.9 0-5-2.02-5-4 0-2.98 2.1-5 5-5h7c2.92 0 5 2.02 5 5"/>
    <path fill="#1CB0F6" d="M410.2 173.93H421l7.04 6.53-4.15 7.27-15.7-6.9 1.9-6.9m59.4 0h-10.8l-7.1 6.53 4.1 7.27 15.6-6.9-2-6.9"/>
    <path fill="#8FD4EF" d="M455 188.86h14v11.78h-14v-11.78zm14 11.78l-7 4.38-7.02-4.37H469"/>
    <path fill="#1CB0F6" d="M466.27 255.33h-6.56a7.94 7.94 0 0 1-7.9-7.94v-16.8h14.5v24.7"/>
    <g fill="#BF7358">
      <path d="M204.5 232.4a4.6 4.6 0 0 0 4.6 4.57h7.65a4.6 4.6 0 0 0 4.6-4.58 4.6 4.6 0 0 0-4.6-4.6h-7.65a4.6 4.6 0 0 0-4.6 4.6"/>
      <path d="M204.5 241.16a4.6 4.6 0 0 0 4.6 4.6h7.65a4.6 4.6 0 0 0 4.6-4.6 4.6 4.6 0 0 0-4.6-4.58h-7.65a4.6 4.6 0 0 0-4.6 4.58"/>
      <path d="M204.5 248.7a4.6 4.6 0 0 0 4.6 4.58h7.65a4.6 4.6 0 0 0 4.6-4.6 4.6 4.6 0 0 0-4.6-4.58h-7.65a4.6 4.6 0 0 0-4.6 4.6"/>
    </g>
    <path fill="#4C241C" d="M214.75 95.18c-11 0-20 9-20 20v58.1c11 0 20-8.98 20-19.98V95.18"/>
    <path fill="#4C241C" d="M238.77 144.72c-18.44 0-33.52-15.08-33.52-33.52v-8.48c0-18.44 15.08-33.52 33.52-33.52 18.43 0 33.5 15.08 33.5 33.52v8.48c0 18.44-15.07 33.52-33.5 33.52"/>
    <path fill="#B25C4B" d="M275.36 122.4a6.9 6.9 0 1 1-13.78 0 6.9 6.9 0 0 1 13.78 0m-58.65 0a6.9 6.9 0 1 1-13.7 0 6.9 6.9 0 0 1 13.8 0m22.5 50.78c-6.2 0-11.3-5.07-11.3-11.32v-13.58c0-6.25 5.1-11.32 11.4-11.32 6.3 0 11.3 5.07 11.3 11.32v13.58c0 6.25-5 11.32-11.3 11.32"/>
    <path fill="#BF7358" d="M239.4 158.1c-16.23 0-29.4-13.16-29.4-29.4v-18.3c0-16.23 13.17-29.4 29.4-29.4 16.25 0 29.42 13.17 29.42 29.4v18.3c0 16.24-13.17 29.4-29.4 29.4"/>
    <path fill="#A85F48" d="M227.7 114.67a3.7 3.7 0 1 1-7.38 0 3.7 3.7 0 0 1 7.4 0m30.2 0a3.7 3.7 0 1 1-7.38 0 3.7 3.7 0 0 1 7.4 0"/>
    <path fill="#B25C4B" d="M242.3 124.36H236c-.96 0-1.75-.8-1.75-1.76v-9.9c0-.97.8-1.75 1.76-1.75h6.3c1 0 1.8.78 1.8 1.75v9.9c0 .97-.8 1.76-1.7 1.76"/>
    <path fill="#933634" d="M254.4 128.85c0 8.4-6.8 15.23-15.22 15.23-8.42 0-15.23-6.82-15.23-15.23"/>
    <path fill="#FFF" d="M224.75 133.7h28.85a15.17 15.17 0 0 0 .8-4.85h-30.45c0 1.7.3 3.33.8 4.86"/>
    <path fill="#AF3F3F" d="M248.06 141.2a11.3 11.3 0 0 0-8.84-4.24c-3.6 0-6.8 1.68-8.87 4.3a15.15 15.15 0 0 0 8.83 2.82c3.32 0 6.38-1.07 8.88-2.87"/>
    <path fill="#FFC200" d="M210.3 128.4a2.23 2.23 0 1 1-4.45 0 2.23 2.23 0 0 1 4.46 0m63.2 0a2.23 2.23 0 1 1-4.4 0 2.23 2.23 0 0 1 4.5 0"/>
    <path fill="#1CB0F6" d="M420.22 255.33h-13.16V230.6h20.98v16.9a7.82 7.82 0 0 1-7.82 7.83"/>
    <path fill="#BF7358" d="M314 176h13c2.56 0 5-2.38 5-5.77v-13.46c0-3.4-2.44-5.77-5-5.77h-13c-2.56 0-5 2.38-5 5.77v13.46c0 3.4 2.44 5.77 5 5.77"/>
    <path fill="#BF7358" d="M322 156c0 1.98 2.1 4 5 4h7c2.92 0 5-2.02 5-4 0-2.98-2.08-5-5-5h-7c-2.9 0-5 2.02-5 5m0 9c0 1.98 2.1 4 5 4h7c2.92 0 5-2.02 5-4 0-2.98-2.08-5-5-5h-7c-2.9 0-5 2.02-5 5"/>
    <path fill="#BF7358" d="M322 172c0 1.98 2.1 4 5 4h7c2.92 0 5-2.02 5-4 0-2.98-2.08-5-5-5h-7c-2.9 0-5 2.02-5 5"/>
    <path fill="#B25C4B" d="M319.4 163.8a4.6 4.6 0 0 0 4.58-4.6v-7.64a4.6 4.6 0 0 0-4.58-4.6 4.6 4.6 0 0 0-4.6 4.6v7.65a4.6 4.6 0 0 0 4.6 4.6"/>
    <path fill="#2f343d" d="M638.77 142.43c35.35-24.75 43.94-73.47 19.2-108.82C633.2-1.7 584.5-10.3 549.14 14.5c-29.4 20.57-40.26 57.7-28.88 89.95L490.7 150.8l53.7-11.93c26.4 21.74 65.05 24.2 94.4 3.65m-604.5 0C-1.13 117.66-9.7 68.94 15.07 33.6 39.8-1.73 88.5-10.32 123.8 14.42c29.4 20.58 40.27 57.7 28.9 89.96l29.54 46.34-53.67-11.92c-26.4 21.72-65.03 24.2-94.4 3.63"/>
    <path stroke="#4C4C4C" stroke-width="2" d="M265 115c0 5.52-4.48 10-10 10s-10-4.48-10-10 4.48-10 10-10 10 4.48 10 10zm-41 10c-5.52 0-10-4.48-10-10s4.48-10 10-10 10 4.48 10 10-4.48 10-10 10z"/>
    <path fill="#4C4C4C" d="M213 114.32h-3v2h3v-2zm56-1h-3v2h3v-2zM245 110h-11v2h11v-2z"/>
  </g>
</svg>
